Coordinates
version=1
nRows=17
nColumns=24
inDegrees=yes

Units are S.I. units (second, meters, Newtons, ...)
Angles are in degrees.

endheader
time	pelvis_tilt	pelvis_list	pelvis_rotation	pelvis_tx	pelvis_ty	pelvis_tz	hip_flexion_r	hip_adduction_r	hip_rotation_r	knee_angle_r	ankle_angle_r	subtalar_angle_r	mtp_angle_r	hip_flexion_l	hip_adduction_l	hip_rotation_l	knee_angle_l	ankle_angle_l	subtalar_angle_l	mtp_angle_l	lumbar_extension	lumbar_bending	lumbar_rotation
      1.65000000	     12.74980789	     -7.27977631	      2.40037744	     -0.26510015	      0.96352796	     -0.03099855	      5.95616975	      6.41192279	    -14.35116932	    -26.22134133	     13.01175952	    -17.43056727	     23.10030550	    -18.36345556	     -4.37174596	    -10.06692753	     -8.42762990	     23.79788595	     -3.81410413	     11.83258573	    -23.73784727	      7.39967800	     -0.03651330
      1.65500000	     13.05970717	     -7.48030464	      2.73952710	     -0.25938942	      0.96327868	     -0.03100156	      5.17167731	      6.77666933	    -15.11804098	    -23.54675015	     12.64071670	    -16.72884360	     23.62505419	    -19.00207226	     -4.72999214	    -10.11465413	     -8.50434073	     24.18168962	     -3.50915411	     11.63879994	    -23.97673255	      7.72867770	     -0.17300486
      1.66000000	     13.33077454	     -7.63371270	      3.06708168	     -0.25365481	      0.96290748	     -0.03094867	      4.42060924	      7.11426085	    -15.90342141	    -20.86831655	     12.25340336	    -15.87629191	     24.23994745	    -19.59011528	     -5.04444105	    -10.15383117	     -8.60080008	     24.55415562	     -3.21324788	     11.44281250	    -24.16772463	      8.00282053	     -0.30673706
      1.66500000	     13.58625498	     -7.74021459	      3.37790650	     -0.24788246	      0.96242506	     -0.03082870	      3.68364826	      7.42423088	    -16.71286175	    -18.20633311	     11.85991912	    -14.85997774	     24.92171293	    -20.16807283	     -5.31213176	    -10.20783781	     -8.69098823	     24.91669833	     -2.92951125	     11.25329819	    -24.33769242	      8.21731611	     -0.46169291
      1.67000000	     13.81913379	     -7.79761230	      3.67910009	     -0.24209311	      0.96184128	     -0.03065813	      2.96398875	      7.70871747	    -17.52889212	    -15.55112417	     11.43131459	    -13.72000451	     25.69191803	    -20.71377694	     -5.53404919	    -10.24874840	     -8.80268381	     25.28291050	     -2.63946548	     11.06433509	    -24.47718300	      8.37645757	     -0.62398602
      1.67500000	     13.96329762	     -7.81578287	      3.95182973	     -0.23632482	      0.96105960	     -0.03036953	      2.35407302	      7.97635312	    -18.29350540	    -12.93073995	     10.73686119	    -12.74738961	     28.44861327	    -21.13425780	     -5.72345269	    -10.34116466	     -8.98412642	     25.78294502	     -2.21672698	     10.31774587	    -24.52484190	      8.47812097	     -0.81368928
      1.68000000	     14.10892808	     -7.75897340	      4.19404641	     -0.23056935	      0.96021996	     -0.03006155	      1.77245579	      8.16738109	    -19.08623038	    -10.45521058	     10.36110929	    -11.30989732	     28.72032768	    -21.58749481	     -5.81191520	    -10.30604307	     -9.09854701	     26.07414675	     -2.10251794	     10.29908304	    -24.57999523	      8.49369309	     -0.98211007
      1.68500000	     14.18316630	     -7.65662973	      4.37814991	     -0.22484427	      0.95922181	     -0.02963052	      1.31541390	      8.31218223	    -19.83540460	     -8.13590074	     10.00286674	     -9.77704215	     29.17626063	    -21.95097302	     -5.84369160	    -10.33509243	     -9.25818630	     26.40253322	     -1.90600150	     10.26860049	    -24.56792165	      8.43535061	     -1.12772933
      1.69000000	     14.19190580	     -7.51397352	      4.51818147	     -0.21917833	      0.95808573	     -0.02912950	      0.98429211	      8.40696017	    -20.53966711	     -5.99261116	      9.67279253	     -8.19413758	     29.75151777	    -22.23560714	     -5.81919028	    -10.34814246	     -9.44084515	     26.72903129	     -1.75186785	     10.21581509	    -24.49651102	      8.32000833	     -1.25927570
      1.69500000	     14.13573885	     -7.32212215	      4.64194141	     -0.21361753	      0.95683641	     -0.02855854	      0.77681189	      8.44384409	    -21.19992174	     -4.01600269	      9.32625835	     -6.67919628	     30.24180814	    -22.41694310	     -5.74585327	    -10.32124700	     -9.68366688	     27.09512840	     -1.59723312	     10.18790812	    -24.37032855	      8.14007352	     -1.42688416
      1.70000000	     14.04830843	     -7.12910022	      4.70786858	     -0.20806380	      0.95552053	     -0.02792285	      0.64663654	      8.46630546	    -21.78593104	     -2.20967915	      9.05577529	     -5.10684219	     30.76515648	    -22.57754172	     -5.64618202	    -10.32319730	     -9.91861246	     27.41048816	     -1.49666517	     10.14752033	    -24.21857975	      7.94302322	     -1.52204462
      1.70500000	     13.91818987	     -6.92958084	      4.75680504	     -0.20256194	      0.95413931	     -0.02721504	      0.60329688	      8.47209013	    -22.30422616	     -0.55910654	      8.79784118	     -3.61637299	     31.24609943	    -22.67571281	     -5.53950556	    -10.31565027	    -10.18613450	     27.73585040	     -1.40835008	     10.12057864	    -24.03003668	      7.72616172	     -1.61305928
      1.71000000	     13.75531361	     -6.72884088	      4.78171494	     -0.19708407	      0.95271906	     -0.02648765	      0.62750743	      8.46048013	    -22.73332410	      0.94012712	      8.55155337	     -2.24394500	     31.65273178	    -22.73424537	     -5.42011943	    -10.30417239	    -10.46624867	     28.04327262	     -1.35690902	     10.10733264	    -23.81281894	      7.50375743	     -1.68758178
      1.71500000	     13.59551579	     -6.52016979	      4.79894909	     -0.19164913	      0.95131505	     -0.02572762	      0.68046864	      8.42671198	    -23.11569033	      2.28470079	      8.34359566	     -0.94028095	     32.03384961	    -22.78890609	     -5.29408590	    -10.28158418	    -10.75984738	     28.32418133	     -1.30167966	     10.10395020	    -23.60600083	      7.26964553	     -1.74432809
      1.72000000	     13.42897969	     -6.32791794	      4.82050752	     -0.18620874	      0.94991878	     -0.02497465	      0.75979040	      8.39493518	    -23.42341759	      3.49159937	      8.14163365	      0.19519201	     32.34568054	    -22.82989919	     -5.18787266	    -10.24237789	    -11.06615533	     28.58160109	     -1.25766959	     10.12063648	    -23.39276769	      7.05645505	     -1.79759918
      1.72500000	     13.25647800	     -6.14239104	      4.84536955	     -0.18076657	      0.94854324	     -0.02424164	      0.86368750	      8.35058356	    -23.66285771	      4.55693031	      7.96046508	      1.18006352	     32.58831231	    -22.85790136	     -5.08986783	    -10.18598791	    -11.38574604	     28.83259136	     -1.22498515	     10.15995183	    -23.17208871	      6.85805544	     -1.85554741
      1.73000000	     13.12849400	     -5.96572403	      4.88361744	     -0.17532100	      0.94725345	     -0.02354305	      0.93970154	      8.29804224	    -23.87922547	      5.46907728	      7.83051863	      2.08322689	     32.81941928	    -22.93522858	     -5.00767763	    -10.10260574	    -11.70251320	     29.05370072	     -1.18865714	     10.22806706	    -23.00173458	      6.67856553	     -1.90115337
